<mxfile host="app.diagrams.net" agent="Mozilla/5.0 (Macintosh; Intel Mac OS X 10_15_7) AppleWebKit/537.36 (KHTML, like Gecko) Chrome/127.0.0.0 Safari/537.36" version="24.7.6">
  <diagram name="Page-1" id="YivvOHab22Nkf0x-unFe">
    <mxGraphModel dx="1224" dy="776" grid="1" gridSize="10" guides="1" tooltips="1" connect="1" arrows="1" fold="1" page="1" pageScale="1" pageWidth="827" pageHeight="1169" math="0" shadow="0">
      <root>
        <mxCell id="0" />
        <mxCell id="1" parent="0" />
        <mxCell id="Tn144T7u8qkeehZxjKCy-4" value="us-east-1&lt;div&gt;&lt;br&gt;&lt;/div&gt;" style="sketch=0;outlineConnect=0;gradientColor=none;html=1;whiteSpace=wrap;fontSize=12;fontStyle=0;shape=mxgraph.aws4.group;grIcon=mxgraph.aws4.group_region;strokeColor=#B6BABF;fillColor=none;verticalAlign=top;align=left;spacingLeft=30;fontColor=#B6BABF;dashed=1;" vertex="1" parent="1">
          <mxGeometry x="429.11" y="341.5" width="199.33" height="170" as="geometry" />
        </mxCell>
        <mxCell id="Tn144T7u8qkeehZxjKCy-10" value="" style="whiteSpace=wrap;html=1;aspect=fixed;" vertex="1" parent="1">
          <mxGeometry x="90" y="90.5" width="200" height="200" as="geometry" />
        </mxCell>
        <mxCell id="Tn144T7u8qkeehZxjKCy-1" value="EC2" style="outlineConnect=0;dashed=0;verticalLabelPosition=bottom;verticalAlign=top;align=center;html=1;shape=mxgraph.aws3.ec2;fillColor=#F58534;gradientColor=none;" vertex="1" parent="1">
          <mxGeometry x="490.53" y="380" width="76.5" height="93" as="geometry" />
        </mxCell>
        <mxCell id="Tn144T7u8qkeehZxjKCy-25" style="edgeStyle=orthogonalEdgeStyle;rounded=0;orthogonalLoop=1;jettySize=auto;html=1;" edge="1" parent="1" source="Tn144T7u8qkeehZxjKCy-2" target="Tn144T7u8qkeehZxjKCy-4">
          <mxGeometry relative="1" as="geometry" />
        </mxCell>
        <mxCell id="Tn144T7u8qkeehZxjKCy-26" value="Access the application(3000)" style="edgeLabel;html=1;align=center;verticalAlign=middle;resizable=0;points=[];" vertex="1" connectable="0" parent="Tn144T7u8qkeehZxjKCy-25">
          <mxGeometry x="-0.1839" relative="1" as="geometry">
            <mxPoint as="offset" />
          </mxGeometry>
        </mxCell>
        <mxCell id="Tn144T7u8qkeehZxjKCy-2" value="" style="shape=actor;whiteSpace=wrap;html=1;" vertex="1" parent="1">
          <mxGeometry x="158.43" y="394.75" width="62.63" height="63.5" as="geometry" />
        </mxCell>
        <mxCell id="Tn144T7u8qkeehZxjKCy-19" style="edgeStyle=orthogonalEdgeStyle;rounded=0;orthogonalLoop=1;jettySize=auto;html=1;" edge="1" parent="1" source="Tn144T7u8qkeehZxjKCy-5" target="Tn144T7u8qkeehZxjKCy-1">
          <mxGeometry relative="1" as="geometry" />
        </mxCell>
        <mxCell id="Tn144T7u8qkeehZxjKCy-5" value="Dockerhub" style="image;sketch=0;aspect=fixed;html=1;points=[];align=center;fontSize=12;image=img/lib/mscae/Docker.svg;" vertex="1" parent="1">
          <mxGeometry x="480" y="110" width="97.56" height="80" as="geometry" />
        </mxCell>
        <mxCell id="Tn144T7u8qkeehZxjKCy-6" value="" style="dashed=0;outlineConnect=0;html=1;align=center;labelPosition=center;verticalLabelPosition=bottom;verticalAlign=top;shape=mxgraph.weblogos.github" vertex="1" parent="1">
          <mxGeometry x="60" y="60" width="75" height="75" as="geometry" />
        </mxCell>
        <mxCell id="Tn144T7u8qkeehZxjKCy-9" value="Github Actions" style="shape=image;verticalLabelPosition=bottom;labelBackgroundColor=default;verticalAlign=top;aspect=fixed;imageAspect=0;image=data:image/png,iVBORw0KGgoAAAANSUhEUgAAAZEAAAGRCAYAAACkIY5XAAAmtElEQVR42u2dzZXjOJaF04Q2QSaUCTIhTJAJWnbXZrTLytrQBJrAZWX3hibQBJpAEzhBAspQRigUkvge8B7w3XNwpme6uicEXuDi/X/7BgAAAAB57Jr5X7vv8373Y355/Z+n3V9z87r6izXfuaaL/0y3/neFtd/9Pf/BTgMAgHfBeL3MXy/1w4VQTA+IhMQaLwRmvwgYXwUAACyLxo/5uF7c6QXjEWFpV3H7Pu/4agAAkFM4FrfUcimHy3l2uIbVUsIFBgAAyYVjcioct6wUBAUAAMSFY3FVlSkcnwvK4pojjgIAABvEIwTGh0qE47O1xFD2sAEAAO4RjpCGe6rI6rh39YuowhAAAEA8trm6EBMAAEA8EBMAANgiIKGuA/HY7ubawyYAQD3isVRw+63tsLo6ChgBAOW7rkJFOZe+zpoW6w6mAQBKtD4OuK4SVsJTtAgAKMj66LnYM6zv8wkGAgD8CkhoUYL1kdsqIVYCAHAnIKEFu7+Ywu/zRa6twWms5AVWAgDsi8frq9f4RdvHViJhzseG9Nj1t4b/jkOsdemMZ501MBQAYFlA9sbcV2F+x1KPkjDQ/GuCYhCW3pyI0tgRAGBQQA5mYgCJReOu/QnxocaIpTKSvQUAsHNB5o9/BOFwEkCOre1zC8pEpTsAwIKAtBmD4I33zKNooXQZ04APsBgAkP7yy1d9vjYeLM2vHxMSmiwxJYQEAJBBQIYc4lHF3uboaoyQAAAKFZAqW55nEROEBABQkIDQTPDbLzdXi5AAAPxfaOliIC21DB/EZJ9MwBESAICCgLSJXFd7dvummJwQEgCANwFJUQfSYH3c+T1CnYm+VUJBIgBA4OV7oDlgteI+ISQAgC0CslevNMf62PaN9Nvt840AAE8JyE75cmrZZdFvpene6thlAMCjrpKBoK2j76XdQYApiQCABwSkIf7h9tu1ikKyZ4cBALcvoeBjJ0jr+xse1b4h8REAwBcukQkBKeBb6mXVER8BAHzqCukREISEmBYAwIoLBAEpU0gm73NcAACSF42OGwsBsSMkJ9xaAAC9S0YjNZQsLGvfuOUbAwA0Xqn7Enzma8FdcMl1V2I74/p/W17kFaepKsS8RrK1AOCFOnquRI8+/+EJn/6ptgtQZR4MRYgAVCwg8sH0IbEFNQgEiKu6BGMH4ElYSHacJgBqExD5YHqyQjSFQPFQk5tLIWOLPmgAVCci0hdxoiCr8nCsamaaiO8jmXgAYIVsuXwLEJC3YHEFWUeRA5LxsJ6TBQBWiNkMnUTTFX+rgyjd1y+emUeDRgCwQixeHAmGY93qOnws3K3VEBsBAOSyQpJcGgppyI8H3gv1+Ss8KnacMgDKfnlOnrKxEsx4f6gmosTAu/AeY40AULAVchDMxkri5jFghXyMARXo+xesZmfmCAAFWyFS1cpjkr83FMbNRldX0mUpGncqPI4EQJ0CInkhJ+qNpdR9lsD754+MztMjAwCQ9oJovV0QSkOyNFZfQkB5bWJJui8A4JMLefLWoVdpVK9q4J3HBgF2AMoTkB/zi0c3hSsBKSTwLuj2nDh5AODKyjonxKmI/HqJew28i7kRGVoFAK6snKmbIrGK0O5+yhh4d3eRClquuLQAwJWVtsmitIis/z2hKrsj8P7Q3o+4tAAAkq6sXYa/XbSzbKyFGLNZJY4C72Lp1bi0AHAvIhKX5pDpbxdvTx6tkoY+XF+KyM6rBQsAkLoIpDJtMhXUac64iHszZBQT8wOwhPaHwkMA3IqI1Az1TP78FIOSMgfeTQ/A8s4fAMD2S7jz6spKJSIXrpsuax8ugxetmEsrcWo4AEDuEp48N9NLPbI1ZrJN9OESd2mR6guAOwGRiodkDALnmPttIPDeWwq8C2VpDZxIALyJiMzskKxB0RwicrF/+6yBdyMDsKRaxHMiAfDnymq8uyFyisi7l/hUcx8uuvoCUKeI9J7jIVZEJArJLnNb+qwDsErgEgDg8YM/eY6HWBKRdy7CKWPF+yGTS+tE0SEANQlICA6792NbE5GLvW1rskqE+q/1nEwAvIiITDA0+6G3/Bsy9+EaUgqJUL0IlesAuBERmZdj9tx+D0KYcQ58WiEhQwuAqiyRk0SKKSJy598ZanJyBN7bhN+i9x5jAwDcf+CbElIyvbnksvThStR7S6QtDGm+ALgRkR4RyRPXyTAAa0zh1hKxbpktAkA9ImLkd7hNDkgaeE9QgyHS0dfRUC4AEBFEJHuGWcI+XOqZTyIZf4gIAG5EpIjZ2KXUJiQZgKUctEZEAEBE/F2+hRW4qQbelS9oodojWsIDgIjwOzZexlp9uFR/q1AXBKrWAUBE+B1CVon0AKyR7wEA4LBXdGlJB975HgAADnuFl5ZQmxpEBADAYa/t0pJsL8/3AABw2Cu5tBT6bU18DwAAh73wS2uNg+h0/tXNzpJpB4+IAFCJiAyIiMpFrNkKpUnwtzPdEIBKRGSi7Ykhiyq84jvP3XypWAegLhGhd5aV6Yxp2sNPCX7HCyICACLyyIHfISIb/vYU/bISuolKGXQGALjv8i1igJDjeSJNIvFYrZAUgi8kIntOJwAeRETmwB8QkadcPmNCAUn2ui9l0BkAoCLXg5sZ63pNFc1k0Ym45hJMYAQAyFxqEumYHSJyt2BPGQRkShm38lBRDwCQOvAhqGu+K6xnEYlCPWQQjyAgykOoFPg0cDIB8CQkEpdVZveDRRGJgfM2k3isl3FKAYmCeaBaHYD6RGT0Hgi1dnFJNkt8NpU3h7CLZJuR3guAOxHpvB98KyKSMXD+Zn1kFHQRt52BbD8AwGMX38m7C8LC36/ULPGR4HleIZcZizundsEBALZffnvvGTU5RUS5WeJdf7uJrgFOBmYBAKy+IJUb+1kTkbhvXUbxGHPu+ZVv0BJUB6BWIZF5STcZ//6kl1eiZonmAufqHCKoDoBbEWk914ukEhGFKYPm03Yf2JeZdicA1CoiMvn92YKi2iKSoVnix8D5q/Vj+BHSEA8BoGYRkYqLZHJpaYpIlmaJ79rKWO8lJbQ/xEMAcO7SGry6tDQusCRTBr8KnDtw70hl91m2tAAACV0SOTKGpEUke+B8qTlx0slWrLUL9SEAOBcRqeBohq6+UiKSuVliqPlwdJkKukFHTiAAZVgjo9BLeudMRIbsgXOH7T6ixTZ7Tg8HAFh0aSW+FDJe/hKr9TqESezRgSsLAFxaH17WCS9Gp+Ixeq6LEEsLx5UFAC6t3NXHmVNwq6zM9sgTAECKy0HOz53MGsmciuuuWaIhK2QuYT8AAJcXhFzGTbJXpqDwaVacvxTDETnLjwJDAAp1abWCWUfqL81YGGhVQBqvgXN1K6QgYQUA/H5R7CWzjxIJX29MPIbSGgpGK3UioA4ASHspJ7hMRV/IBTdL3LjHJ0ErhDYnABRujUheykMl1khXaqBYMP07eQo4ACCfNTJ6CrILX3RupwwqcWEgxRkAkNdFlKAyOYNbqyn9VS3qxsIKAQBrxIFbq6VZolHrDisEAKwRD321hF/PVQTOP+xhyMYasEIAAFtf9rIB60TxgziVcBINnFd0CYpbdFghAFRrjex38q3Pdwlf023NzRKNWKDUhQBQuTXSiRfjpez0G6ra2wctk87jnI/Ne6WR5UZ1OgDVWyM7hZGxXabfso8xkza66s6rW//vixusUt+90nemRxYAQK3RYcvOGvm+8oF0OvUCAN5dNBqXDC0wShaQE7sLAHi7bLSqwiuMPRh7HGi0jBnYWQDAxwtHqwYDIcklIDrFmcxOBwDcuHgGhMT5NwwuLJ2mlbgoAQBfWCMaWTz40dMKyKDVEoYdBgB8fRGFinCt3lRkbek+AAa1tjC0NgEA3H0hLV1sNZscciHJfq+QGDGpfbPKKvsBADJC0quOmSVAK2WB6LbJJw4CAHjqcgr+9VF15CwB963fR7s9Pu5HAIBhN0m8qHBvPfVdBuXvQj0IAEDEXbJPMooWv/u93+OU4HsMCDsAQPLiOjCWtgrrI2lLfwAAQkKsRHvfl9hHGusj7D0JDwCAAoQkpAJX7uKK+z0hIAAAhGRL4L0y90rc4zHhHiMgAICihSSISeEXXQbxQEAAAFUJSXBzFTSWdY15hMFgY4a9REAAAFUKyTkt+OTV1RVTp9uM+zeQhQUAyH8ZpilI/PpCXF7zxi/FuFdNJquDOhAAgOnLcch8MV6+sE8WMruiq+olWhyjkf2hlQkAwKCQhF5OnZGL8n2q8Gm9zJUtlVVMg4uvMSSqNFMEADgSk3SFcduEZRG8IC7HNT5xXp+4edZ5Hed/JgjSKf7W3qRgfCzg3MNOAIAXIdkbiJOwCpnfslp4Z+EOrsE+ruku9+blo2GxFG88FkBF9xS8wr3FKs99dRFHapRn2swxTtWu1iipzuXfR/DKrVVywCrJkFzgiLwxlnQy4BY8H/4XTm4hlga8KkZIdlglidbroXHDiXDAR7NxpNByZ88JdnbXwKuCP3AwJ0cue7UstJ0TDvTO9nZcXRP4u+EVvDLim/SRweWJiObN5Ex9wTRekQ2V/vAKXtlxcbWIwKa03ROHPNtigBq8gldmgl/+zNDs4mGdaDHNe+RbAHgFr1KSA8vEv3jsKnwUjARK4RW8sufmIi3YWfAttrSv+bt1vB7hFbyyFIDPN2fDRraVk7zySl+Jn1uM1APAK3hl1tU1VWC+upqRElMrsRqvBEg5ufAKXtklV0mCMq4ZGQ7bI8QWEhxs5rbAK3jlWlAahy6v3nNfndgXDTcDI4jhFbwqzH8acsdbg63ZeyuDsoT81AOH+OHMugOnFF7BK39xlPRm5ptgHEp7KRgZhey5rxkHHl7BqwpFZLiYM9D8GkYVLYtaZggYPuj9jTVx4OEVvAJ5RYSRslYOen85/OcJV+c+9mzrsv8WDjy8gldVWSIdBz3L4QhZa0q58XGq3TGbH77yAw+v4FVNIjJVu4chW2ZMGijMMGsh2wyKSg88vIJXtYnIXGMqXTzoQ8IsExN9wRLPpaguTRNewas6RaTCKtFEkyjNNpWM/OmT7EFFhWPwCl7VKiJjZXuXYmiYi7kJsfZI23c/wCt4Ba/KFpG5lpbMCeprBm+mdnTBaLfiaOAVvIJXZZO2rcRfPSkG/E6u90e7KWChXVrhFbxCRN7IusNf/bSPel/QhTjgx4ZX8AoRwRr5+BrScTMUKL6KUzg7eAWv4FXJPtgSiavnbii6ZXUsKsP9AK/gFSJStzWiFNyrYqRnzLKRr6ouYO/gFbxCRCooPowtuMX7EVXGtQPBYngFrxCRKsmsUPhU5dQ1BReE62AovIJXiEgF3X0V9qhqc1khKNrCK3gFr0oVkQL60wi/FunXE/Z0qD2RA17BK0SkAhNboaL/AOtUMpIaeAVq51XJIuLX5SBrImMeX+6tbG2EKx82vIJXiEgF8RHhzBnSBq9fpk1t/IJX8AoRqcTsFu2mSgFTCvfDCK9ArbyqR0QcCYngpLUept3k4EGQW3t4BWrkVV0i4kBIRP2qhWR4xDGmh/iS7uMo1ZNEVpBgplILr+BVbbyqU0SMC4lg4NM9+aJr4Kv96LccekEeTsatEHgFrxCRGrK2xPypzl+LywF+wP0ybXkYiL0aDccJ4BW8QkQqqCMRdDm0BRz0KZX/uPR9h1fwChHRrmw3ovRi6YGOg3FPH/SNaadCQWeT2TTwCl4hImlW9hbWQq0ThkoP+qZ4l1j6q8EWIPAKXiEiKa2STK2YY7Cv2gIlkYO+If1UrBDP2P7DK3iFiORZY+oMLjH/qceGgHIHfV2ZX+ym/NfwCl4hIvnF5JTCzSVk9g61H/RNh11mNsRo7JzBK3iFiJiJmSgG4EXSAZ1NRdM46JsOe/h7tv8NljL+4BW8QkTMCspRMtglQnpH2TNaB33rq7m07wCv4BUi4mO9tUxYfNDLb3t0ZXwpFXTQN89hWB8IBQVB4RW8QkS+MLMVRlN6XQMHfXsAWLTTLbyCV5K8cuZWdCMiUeUREqHsjfW7LK66hfRh7aV8seoHXWAaXGEWMrwqi1cdyqEkIgjJ9ldKzCC5VV3bbjn0CQ76IMTLHcIBr4zyihb8miIS/zsP1R72JzPHYjHavXns0zPJBCkOumTmCuIBr4zyakA5lEUkEbGsvhj3ygf9qQPv7aCLZdLAK3ilwCuUI4GIXJC457CrBfvuOvAeD3o87D0CAq8s8grlSCQi7/yxVbwqn3wtbuszduPAez3oiAi8sswrlCOxiFwEtHoO+1WBnTUOvOeDjojAK8u8QjkyiMi7oPvEYRfPZvvtwHs/6IgIvEJEEJGvTO2Gwy5+Ua4HvoSDjojAK0QEEbnn//euuLqSBw+BwkU5lXDQERF4hYggIs+IiX8314NZNM4ssiFlB1NEBF4hIojI4xklX1fWlnXY/RRmDqlbYCMe8Moqr1AOoyJyJQOkcWedPDiJMcaHJg46IgKv3PCKticeROQTQRkcHPaH90IoHbOsg04DRnhll1eIiDcRueLyeonVuL3B19ZTHT6NJhgMuaa4Vd1/DV5Z5xVz1j2LyKfCEoZKHX61uA7DZ/onVrYZzMYO/JBzDKjQPJHxSQ5oLHhVCq+YJ1KeiJjzw29pqW3jwA+550iLXLxPdr6FV/DKC68QEZsiMuQmWeYDn/2gi126T7Q1h1fwyhOvEBGbItJZ8JlmOvA2DvoS8yosDRNewStEpBYREfLFC108bW0HPf7uprQMGngFrxCRekRkb8nkTXTgzRz0+Jslik0beAWvSucVImLXpTVbIpvygbd10KUuW4PBT3gFrxCRekREIiVzEv6b2tIPuujvNPa74BW8QkRqEhGpSt8HW1UkPvD2Drpcq44BXsGrWniFiFjck9BmZbZIOqEDP5h8qcsEn83yEV7BK0Skos0V6yT8YPfVBAfeZMsG0YaBhvP44RW8QkTqERGpeQy90t/XlnLQRV+LQmmw8ApeeeIVImJzX3ZifmKljI4HD7zdgy75WjTORXgFrxCRijZYsPW82ismVuGON8ea/piPlbzOFy7u4BW8qpFXiIjNvTkIklB1jy7a43frWv61g5x2wWCzm2pieAWvEJFaRER6OhyBOc1XuZtCMHgFrxCRivyFgoE5symQheztCK9A7bxCROy+GiWreZmK9k1h/K1wAR68glceeYWI2DWNW4gpyrmd8FjjEV7BK3iFiNREzmr92PEFPnB5wit4hYhUlUMt7GcNKZKVHXiVg+78tQiv4BUiUouISGfUVHjgVTrGKrT/gFfwyjuvEBG7e3UQJ2sFBz5elL3C3vXwCl7BK0TE26un58BndzWEPSuoihhewStEpJ792im4H4oM5MWq4VFlr4y33IBX8AoRQUQ+3zOp4UKf5PuXUDgWXTST0h718ApewStEBPfDrQpkp26I6GbQnN1dtLsBXsErRKSWfdPJqnG9r3d0fqWPEbyCV4gIIvLONzsrr9E6waM/v0+wFw28glfwChEpbf8OCUi++mut5a7HQ96m+v3wCl7BK0SkVD92KsIHv3bmbJvImbS/ucIutfAKXiEiHPhZNRC4TG5LFChdX4che2hI/jsrDnjCK3iFiNR14FMfhDf/9nLZLAFIwZfVyo3Q2ynX75oYuASv4BUiUs9e6lXRPnP4wyjTxbceDu3+2kWwBnGXf+9tDGpr5Ddw0OEVvEJEOPAsDjq8gleICCLiwZfNQYdXLHiFiHDgq15ky8AreIWIgHf7e+AQ37U6Djq8gleICLi2x6ECeeJAwx94Ba8QET7Wc/usN0DHt5+aCXLwCl4hIojIA/sdCqt4PeJmgFfwChFBRJ7e813Fr8eJjqnwCl4hIoiIzN4fKns9NrwS4RW8QkQQEWmfdqjoLfnQ9/QpglfwChFBRPRdEW2Bh3zP14VX8AoRQUR4QT4W3OSQwyt4hYggItkP/cFRv6Rx9U3jXoBX8AoRQURMuiQa9TnTz82eaMmKgVfwChFBRLx8r6VKOdQE5ErlHNaLhwMOr+AVQEQK+X7B190puCimGMQ8SQ8mAvAKXiEiiIjlV2UYCHSMA4TOQ4H6q+v8z4S1J3gJ4BVARAAAACAiAAAAEBEAAACICCICAAAAEQEAAICIAAAAQEQAAAAgIgAAABARRAQAAAAiAgAAABEBAACAiAAAAEBEEBEAAACICAAAAEQEAAAAIgIAAAARARa+KcODgAL+/N/8x7//mff/+Tkf//xnPi3r3z/n9vV/76+t8z+z/nOv/7llsYuICCJi8fsxxhQIY7nwl8v/VQy61zW8rllwTWeR+c9/55f/6+EVIoKIpLUyFgsjWBFzhrUIVbOICl+jLCtjsTCiFTFnWItQNYuo8DUQESD/jXbrxf3XPGYSjluWSouguLU2duvF/XMeMwnHp5bK6iZDUBARsOG7NPO/Xvf1oOCi0lpjjKns+Hp2sbiO/vxnPii4qLTWGGMq8KpoEflr7thJUfE4xVf+7HS1BOdNiscpxiNmj2uxTgjOW720tl8aPTsp4rJqHQvHVV4gJvldVjGDai5o9YiJtQtMwDfOLlZtedwjJrgjsDw0xAReGRGR7QFb0j+fsT4OhYvH+9XAE33EmEfJ4vF+NaQJ5xeRXiC4jnn5mOuqr0g8fs/oIptLzXWVMUU3e0YX2Vx5RWS7L/7HfGQn79jrUOMxVSogvyVjYJXIIdZ4TJUKyOXqsEryvIxPZGgliH3Ua318bpVgwW6OfVRsfXxeZ0LgPbmI7AmuK+7vUmWO9UGdkXTsI1SZY318spbEAliS9pW8/TJ4vSzZzQ8CfUAocG+JC0gIniMWuLdMxUVG4iIGY011rQEh+RoF1n2o9+VCSPxceAM7iYBsbp+CRYuAaLRP+R+88uF2qbyoLLoGB8RgY8AdIfkNMYA+IAbbAu4Iia6I7EQugIpdWoYEZFxjDKEh4uE8aOqaq+jXv7fMC3kbXjUgJAjItdf8EmOIg6YO50FT11xF539vqd24GF41ICTERe66wCrevyGjaLTSg6MuBl4NCEk+ZLx8x3NLdsmYwsXAqwEhKe8SbIRcWntiIElmeTSpLtnVUg2FkkOGWpJqXaQZYiBLynCT6pKNVfbHDIIy0XdL46JYXrJCDfcQEMUMpu/zIbPrc5/8N1eYtZVYQIbFRZX19y4usMS/mawtnQtxIsD+0IWaqg7EXFv1xO3rq3qYJKwDMddWPXH7esZYGH5Vt8XvVahE1493GG9YmLChZFOFgIRKdP0gufGGhQkbSjbc/FYvxoKDojETa6IdyAd3qO4c+MI7AMdMrIl2IG9YxE59DjwdgMWtkREXxJd71KvGAJwKcBTXlkD7kxem7st78JqVtIirsouLQLvwi/Io+Jresz8PzicvIIisPHCryMdJzFJSm09eQhBZeeAW8RGjrpqxpMya6P+flNxXhwJdo6OSW6uootbo/5+U3FdF8SrGjLTcW/T/E3TXtAREk7mxii2qU6ziL8qtpeTGKraoTrGKH7eW8It7xq31wUWDgDwnJD1urZsuGgTkOSHpcWvVY424dmspZWNV1dZj7ecl7wLcF3ARTgjIJiuuE48hMRnRqDXieISu0AjhqvtCKbm2XPdqiz2kEBB7rq1qewBat0ZcBkRVgumVNhZUERKnCQkawfRaGwtqCElpCQklWSPuCsbEhfR73eRUEGWXr0bpuofaLz0FUcYawZUj9nIWrQOBUb+aOFYrzPHlLFoHAqtCE0eE2e5FOtYoJMICygxxvb119WoUjoXQjVZvb7FGxA68XJt4N0IinpHFgKVrrsKhNjepdEYWA5Y+QjQ+Ql8t0QPf1SQkonUhzpopJttj2U7ILvL7JetCvDVTTLbHsp2QqRsx+zI3LiSCr2RM4tv73AiK9a6iVzK8ur3PjWDdyI4dte3WMhccFc1K+4E5nOxxYtziixlEuFmcuQ2x+ORfjm3pg4cEX8eYwveJ9qkGq0/wdQyv7nMdnrD67L4cB0Uh6XO7JcSy0b7TPiG5NWI4gUGq+yxtOTJYIyQwCB/6EBCdVIcPZXIDCQZ7B5iSwRox6tISDPbCqwzWCC4tjUOvGR+56LeV2ioRGzr1nUKlTNaIyUtWaugUBXDZrBHE2/SF+/XsiGSvAKG25RPseGrvZeJtBos6hdqWw6snINVihqJO6wf/nnbyCV73DOLK6tLal5oRJ+TKglfPiIhUOxQy4ooQElUxEbvEqE7fwqWxNBGXusQI7m4S8RERt3/4h4RCchaTk2TMRCi4SzrgNh41paVWCwV34dU2EWlIrbZ++PVTf78KwB+2+sKFWrvQUXXLNxBK2DB2gXV06s38Df47v0hYg+xkGiHpMwnJm6AsAf8nXEoiIkiFuoQ1UpRLUaTVCf54ie+AS9HRJdBmFpK3zK5QvHhaX7hfFP+VmhnkkD99SWJOZpCZ79Aj5giJbEwlXFaXy1w8JPZbOkaXSB/X8q+PKRvDLfUJMVXy/Df0i69f42UmEptSTAtfLvQ1WP56oax78Mm6+GbEQwxAIjZF0WFqIZFsp+5jdcIvpyZ3xkj0JX+V2dJLCpoQb8RjCLHqvJOcnnfn6rhNZB5CxKZ8CsleuUWKnSX0+o1VtkPu6XYPZrRMUlaJUKp1b+0C4vWbF0Kp1mRoZRKSXcbMrZQicsjou7VwaU5SFoklEckpILQ6EX8YISLOxeRUuIjsc15YUpdNjMNMOQ+ZlTRf4Sl5dO31LyKk+Rpxb42IyKckH3MHYLcWZkm4tSQSHTJahYiIXRHpEZEShCTUkzTFicjG9F6JV6/EBb61RYSED9+CiIhOIiS9FxEBCmISZnf0pYiIAMEl2oUfS/AbWxARqSpnLi1EBOi7uA4luLgE4iHZ89hjZhgi8k10vCqXFiICkri4QuB9QkTyupIQEUQEEeF7ICYORUQij10iCLt1EpxEQRbuLC4tRATU5+bamJ0lMMpzkgjCbq3Klkg1JrBOdhYiAiTFZB97cU2lp/huGeUp1ZJho0UkkmYs8a2tXDqIiCkRmRARXF0Hobkf8kugc+wGa2SSTAV92hoR6nIq8D0Gib/DQrEhnWNFRWTr9xjYxZIEJQwwas24vIR6Z8WLa8rRt+qdmD06B0OkGWRsk0PbE3pniULIPUnbk4JdXrtopbQZ+3SJdfiMQnJP0d+oNSgnCkl3l4gJ9ncSasAo2vk2p5DQOVZMRCQaMNJRuSphWYoZwzCqU6yQP88N0bJcxE3deHldswiGVI354uHrrlhHi8g10nNNrM4TydgKHheKzFlinghQFp3CZns7/g6dQHzqqPX3XQ6lWv7nrbX886T52oDQA+DIToJbl9dkIUOL71DWd5DICCJDi+8AfFxevUU3SnUuyMJm3UukCeNG2ejKEsqyoxkmuH2Bycw7wX+95Rv8mI8WZ91vusBk2qfAq21CLtHclFn34MsL7EUo1XfHbj5tDQ6WsuRELjCh9inSCQyVichAlhzQv8DCnJPZclC3cEtwV+L+C3VGJqj7JATb17D/INlLGNfDcyIiMz75b526mdwvYVxaz0GqG7NWPRYoT0QaK320Ktz7sbR4yIWINPTRyrb3I/EQkO4ik4qL/IX/lH2/uMik4iL45dl34OJFPBFgT77nvZUmmIov4okAe/I972mCCXJcaC3WSML9lumVtazJ8u/c0uafV/ET+y3TK2vtDcduglyuFayRlFaIcdGWnJSINZLOCkG0wbMXm1STRlpH37ZCDpaGgiW42EYhIYFXNyDZdZlkBvCsiDSWhlUVucehLkdqWqWL7BmpLC389J9DYMw0WVlA5IW8E2wRP1rq5VSoULsoBBOe2z7Sy0lZqCkwBBsvudbiwKoi9lYy7rRYM45EWirAjr/+ioAIxp2kR06DOq2RvfD43AO7Ku7GWlbj6fcLZg2dO/zCK3k3lti4Z4A10ou+mP+mdYL4+GKHGXBi9Qvn8cS05JBqLUMGHDBujVQeHxF2Ebp1E0pbI7XHRyRdhLgJgXVrZG3QWKOQCM0KcRsLUbZG1gaNNQqJ0KwQYiFA1RrZCV9+1dWPiNaDFDJFUjhTq8r6Ecl6EKZIAm1rpFEQkq4Gi0RFQApxCwqno55XV8NLWkNASJsGehehfEZRFa4tBRdWUQWcChlFVbi2FFxYFHCCJBfii8qFuAhJgT22FILovyy4oi5E2dqG34SkxAwj6SD6pQXHLQdSXIyd0sU4lTLIKlptg9o+FWi5LReY0sU4ldL7KVptg9Y+4cYC3t1aRQSLo7Wmtz+F9iFTdGsVESyO1pra/uDGAmkvSvnakY/uLWdFiVFcG+V9KbqCWKF25IN7y1tRYhTXRnlfqEwHWYTkpHxhrpemB9dNzL6atIW1Bl4tFoPyhblemh5cNzH7atIWVm4zkO/y1IuPvI+VnCyKSbTI+iR7UFFxpmJ85PdWKa+CZVFMokXWp9gD4iDAggtnSHCJmhKTGPfok/3uyvqNKQeQzYpJjHv0yX43/caAISEZE12oc3Qbtakzudaq/eDCS/lbq+18HIVkTHShhiyun3ObOpNrSUGOLryUv5XOx8CYkLy+lBPEBK5XbS9xE6WMpfV3hWLBIcNvq751/vJSThATuFq1vQazlTKW4u86JrS2EBCAkNzbj2u1FpZA94OWSrQ09tHa6LL/Fmav5BaS3/pxLdbCcvk+aqkslsbyn4nWRpf7tyAgACF5Vlw+X/b+XgTEopBcFZcby9zfi4AAhKSGhYB4ExIXCwEBvoQktI4fEIWHs8846F+4hnLFERyvCQEBPoUkZG31iANpvJKIWVs94kAaL6hFTPRbgXhfQ83jgp9FglYg3tdAISEoR0i0mxL6XfQs2iIk2k0J/S54BYqNk+DeOruvftA1VTBOgnsruq/oxgtqsEqOlVslHe4rFffWsXKrpMN9BbBKyl4j1gdWiUp1PdYHqFhM9sl7UeVJ3T1hfSQVk33qXlSZUndPWB8AfPs1j6NEMWkRj3yI8ziKE5OlUSTiAUC5YjKtac3f5x1fFDERDZr/nJvFZccXBeArMUk7r0My5nHE8rCLxPM6JDsKH7E8AHjOMskzw8P4bBOwDblmeFifbQJA2YKyNHYMgjJktzgW4SDTqgxX1//mP6Kg5O7JNS7CQaYVACkEZenLFVxeTQK311k0jvS3KhtrX67g8moSuL2CaPycj/S3AsCKpbIIS7BW2ot5Iff1rwr/bLf+5xfBWNKPiW9gqSwt6F+FZbFW4qXfPyAwQ/xnu2jtHBcXlff4xv8DeKmErJhZlPQAAAAASUVORK5CYIJ5N5bYuGeANdKLvpj/pnWC+PhihxlwYvUL5/HEtOSQai1DBhwwbo1UHh8RdhG6dRNKWyO1x0ckXYS4CYF1a2Rt0FijkAjNCnEbC1G2RtYGjTUKidCsEGIhQNUa2QlfftXVj4jWgxQyRVI4U6vK+hHJehCmSAJta6RREJKuBotERUAKcQsKp6OeV1fDS1pDQEibBnoXoXxGURWuLQUXVlEFnAoZRVW4thRcWBRwgiQX4ovKhbgISYE9thSC6L8suKIuRNnaht+EpMQMI+kg+qUFxy0HUlyMndLFOJUyyCpabYPaPhVouS0XmNLFOJXS+ylabYPWPuHGAt7dWkUEi6O1prc/hfYhU3RrFREsjtaa2v7gxg==;" vertex="1" parent="1">
          <mxGeometry x="147.37" y="135.25" width="84.75" height="84.75" as="geometry" />
        </mxCell>
        <mxCell id="Tn144T7u8qkeehZxjKCy-11" value="" style="endArrow=classic;html=1;rounded=0;entryX=0.01;entryY=0.381;entryDx=0;entryDy=0;entryPerimeter=0;exitX=1;exitY=0.25;exitDx=0;exitDy=0;" edge="1" parent="1" source="Tn144T7u8qkeehZxjKCy-10" target="Tn144T7u8qkeehZxjKCy-5">
          <mxGeometry width="50" height="50" relative="1" as="geometry">
            <mxPoint x="290" y="120" as="sourcePoint" />
            <mxPoint x="490" y="190" as="targetPoint" />
          </mxGeometry>
        </mxCell>
        <mxCell id="Tn144T7u8qkeehZxjKCy-12" value="Build and push the image" style="edgeLabel;html=1;align=center;verticalAlign=middle;resizable=0;points=[];" vertex="1" connectable="0" parent="Tn144T7u8qkeehZxjKCy-11">
          <mxGeometry x="-0.1438" relative="1" as="geometry">
            <mxPoint as="offset" />
          </mxGeometry>
        </mxCell>
        <mxCell id="Tn144T7u8qkeehZxjKCy-20" value="Pull docker image and run" style="text;html=1;align=center;verticalAlign=middle;resizable=0;points=[];autosize=1;strokeColor=none;fillColor=none;" vertex="1" parent="1">
          <mxGeometry x="530" y="280" width="160" height="30" as="geometry" />
        </mxCell>
        <mxCell id="Tn144T7u8qkeehZxjKCy-21" value="" style="endArrow=classic;html=1;rounded=0;exitX=1;exitY=0.75;exitDx=0;exitDy=0;" edge="1" parent="1" source="Tn144T7u8qkeehZxjKCy-10">
          <mxGeometry width="50" height="50" relative="1" as="geometry">
            <mxPoint x="390" y="420" as="sourcePoint" />
            <mxPoint x="530" y="241" as="targetPoint" />
          </mxGeometry>
        </mxCell>
        <mxCell id="Tn144T7u8qkeehZxjKCy-22" value="connect to EC2 using runner" style="edgeLabel;html=1;align=center;verticalAlign=middle;resizable=0;points=[];" vertex="1" connectable="0" parent="Tn144T7u8qkeehZxjKCy-21">
          <mxGeometry x="-0.1833" y="-2" relative="1" as="geometry">
            <mxPoint as="offset" />
          </mxGeometry>
        </mxCell>
      </root>
    </mxGraphModel>
  </diagram>
</mxfile>
